<svg xmlns="http://www.w3.org/2000/svg" viewBox="0 0 130 160" width="130" height="160">
  <!-- Side panels -->
  <rect x="6" y="8" width="12" height="148" rx="3" fill="#c8a060" stroke="#a07840" stroke-width="1.5"/>
  <rect x="112" y="8" width="12" height="148" rx="3" fill="#c8a060" stroke="#a07840" stroke-width="1.5"/>
  <!-- Top panel -->
  <rect x="4" y="6" width="122" height="10" rx="3" fill="#d4b070" stroke="#a07840" stroke-width="1.5"/>
  <!-- Bottom panel -->
  <rect x="4" y="146" width="122" height="10" rx="3" fill="#d4b070" stroke="#a07840" stroke-width="1.5"/>
  <!-- Shelf 1 -->
  <rect x="6" y="50" width="118" height="9" rx="2" fill="#d4b070" stroke="#a07840" stroke-width="1"/>
  <!-- Shelf 2 -->
  <rect x="6" y="95" width="118" height="9" rx="2" fill="#d4b070" stroke="#a07840" stroke-width="1"/>
  <!-- Back panel -->
  <rect x="18" y="8" width="94" height="148" rx="0" fill="#e8d0a0" stroke="none"/>
  <!-- Back panel grain lines -->
  <line x1="18" y1="8" x2="18" y2="156" stroke="#d4b870" stroke-width="0.5" opacity="0.5"/>
  <line x1="50" y1="8" x2="50" y2="156" stroke="#d4b870" stroke-width="0.5" opacity="0.5"/>
  <line x1="80" y1="8" x2="80" y2="156" stroke="#d4b870" stroke-width="0.5" opacity="0.5"/>
  <line x1="112" y1="8" x2="112" y2="156" stroke="#d4b870" stroke-width="0.5" opacity="0.5"/>
  <!-- Small items on shelves -->
  <rect x="28" y="22" width="20" height="26" rx="2" fill="#7090c8" opacity="0.8"/>
  <rect x="54" y="28" width="14" height="20" rx="2" fill="#c87050" opacity="0.8"/>
  <rect x="74" y="24" width="18" height="24" rx="2" fill="#60a870" opacity="0.8"/>
  <rect x="24" y="62" width="30" height="28" rx="2" fill="#c8a040" opacity="0.7"/>
  <rect x="80" y="65" width="22" height="24" rx="2" fill="#8860c0" opacity="0.7"/>
  <!-- Feet -->
  <rect x="10" y="154" width="12" height="8" rx="2" fill="#806030"/>
  <rect x="108" y="154" width="12" height="8" rx="2" fill="#806030"/>
</svg>